<svg xmlns="http://www.w3.org/2000/svg" width="32" height="32" viewBox="0 0 42 32" xml:space="preserve">
  <g fill="#000">
    <path d="M3.7 21.72c.17.04.4.26.48.46l.35.84c.07.16.06.48-.03.64l-1.4 2.28c-.3.5-.24 1.19.16 1.64l1.19 1.18c.4.36 1.14.43 1.61.14l2.28-1.4a.8.8 0 0 1 .67-.01l.84.35c.17.05.39.3.43.47l.63 2.6c.13.55.66 1 1.22 1.06 0 0 .35.03.87.03s.87-.03.87-.03c.56-.05 1.1-.5 1.22-1.06l.63-2.6a.82.82 0 0 1 .46-.48l.84-.35c.15-.08.5-.06.64.03l2.28 1.4c.2.12.44.18.7.18.34 0 .68-.12.94-.35l1.18-1.18a1.4 1.4 0 0 0 .14-1.62l-1.4-2.28a.83.83 0 0 1-.01-.67l.35-.84c.06-.17.3-.39.47-.43l2.6-.63c.56-.13 1.01-.66 1.06-1.22 0 0 .03-.35.03-.87s-.03-.87-.03-.87c-.05-.56-.5-1.09-1.06-1.22l-2.6-.63a.82.82 0 0 1-.48-.46l-.35-.84a.82.82 0 0 1 .03-.64l1.4-2.28c.3-.49.23-1.18-.17-1.63l-1.18-1.19a1.45 1.45 0 0 0-1.62-.14l-2.28 1.4a.8.8 0 0 1-.67.01l-.84-.34a.81.81 0 0 1-.43-.48l-.63-2.6c-.13-.55-.66-1-1.22-1.06 0 0-.35-.03-.87-.03s-.87.03-.87.03c-.56.05-1.09.5-1.22 1.06l-.63 2.6a.82.82 0 0 1-.46.49l-.84.35a.88.88 0 0 1-.64-.03L6.06 9.1a1.43 1.43 0 0 0-1.63.16l-1.19 1.19a1.4 1.4 0 0 0-.14 1.6l1.4 2.3c.09.15.1.47.01.66l-.34.84a.82.82 0 0 1-.48.43l-2.6.63c-.55.13-1 .66-1.06 1.22 0 0-.03.35-.03.87s.03.87.03.87c.05.56.5 1.09 1.06 1.22l2.6.63zM1 19c0-.46.03-.77.03-.78a.47.47 0 0 1 .3-.34l2.6-.63c.5-.12 1.01-.58 1.17-1.05l.32-.78a1.8 1.8 0 0 0-.07-1.6l-1.4-2.28c-.07-.11-.05-.33.02-.4l1.14-1.15c.1-.08.32-.1.43-.04l2.28 1.4c.43.26 1.18.28 1.57.09l.79-.33c.49-.17.95-.68 1.07-1.18l.63-2.6c.03-.14.2-.3.34-.3.01 0 .32-.03.78-.03s.77.03.78.03c.13.01.3.16.34.3l.63 2.6c.12.5.58 1.01 1.04 1.17l.8.32c.45.23 1.16.2 1.59-.07l2.28-1.4c.1-.06.35-.03.4.02l1.15 1.14c.09.1.1.32.04.43l-1.4 2.28c-.27.44-.3 1.13-.09 1.57l.33.79c.17.49.68.95 1.18 1.07l2.6.63c.14.03.3.2.3.34 0 .01.03.32.03.78s-.03.77-.03.78a.47.47 0 0 1-.3.34l-2.6.63c-.5.12-1.01.58-1.17 1.05l-.32.78a1.8 1.8 0 0 0 .07 1.6l1.4 2.28c.06.11.05.33-.02.4l-1.14 1.15a.4.4 0 0 1-.25.08.35.35 0 0 1-.18-.04l-2.28-1.4a1.89 1.89 0 0 0-1.57-.09l-.79.33c-.49.17-.95.68-1.07 1.18l-.63 2.6a.47.47 0 0 1-.34.3c-.01 0-.32.03-.78.03s-.77-.03-.78-.03a.47.47 0 0 1-.34-.3l-.63-2.6a1.79 1.79 0 0 0-1.04-1.17l-.8-.32a1.7 1.7 0 0 0-1.6.08l-2.27 1.39c-.1.06-.35.03-.4-.02L3.98 26.9c-.09-.1-.1-.32-.04-.43l1.4-2.28c.27-.44.3-1.13.09-1.57l-.33-.79a1.8 1.8 0 0 0-1.18-1.07l-2.6-.63a.47.47 0 0 1-.3-.34c0-.01-.03-.32-.03-.78z"/>
    <path d="M13 24.5a5.5 5.5 0 1 0-.01-11.01A5.5 5.5 0 0 0 13 24.5zm0-10a4.5 4.5 0 1 1-.01 9.01A4.5 4.5 0 0 1 13 14.5zM27.48 5.31a.42.42 0 0 1-.26.14l-1.86-.02c-.46 0-.9.33-1.06.75 0 0-.08.23-.17.59-.09.36-.13.6-.13.6-.07.45.18.95.59 1.16l1.64.86c.06.03.15.17.16.27l.1.64a.43.43 0 0 1-.09.28l-1.32 1.3c-.33.32-.42.87-.19 1.3l.6 1c.25.38.8.57 1.23.44l1.83-.56c.1 0 .2.04.25.08l.52.38c.06.04.13.19.13.26l-.01 1.85c0 .46.31.92.74 1.07 0 0 .23.08.6.17.35.09.6.13.6.13h.15c.4 0 .82-.24 1-.59l.86-1.64a.44.44 0 0 1 .28-.17l.66-.1c.1 0 .22.06.25.1l1.3 1.32c.31.32.84.43 1.3.19l1-.6c.39-.26.58-.8.44-1.23l-.55-1.77a.43.43 0 0 1 .07-.31l.38-.52a.42.42 0 0 1 .26-.13l1.86.01c.46 0 .9-.32 1.06-.74 0 0 .08-.24.17-.6.09-.35.13-.6.13-.6.07-.44-.18-.94-.59-1.15l-1.64-.86a.44.44 0 0 1-.17-.28l-.09-.63a.43.43 0 0 1 .09-.28l1.32-1.3c.33-.32.42-.87.19-1.3l-.6-1c-.25-.38-.8-.57-1.23-.44l-1.83.56c-.1 0-.2-.04-.25-.08l-.52-.38a.43.43 0 0 1-.13-.26l.02-1.85c0-.46-.32-.92-.75-1.07 0 0-.23-.08-.6-.17-.35-.09-.6-.13-.6-.13h-.15c-.4 0-.82.24-1 .59l-.86 1.64a.44.44 0 0 1-.28.17l-.66.09a.44.44 0 0 1-.25-.09l-1.3-1.32a1.11 1.11 0 0 0-1.3-.19l-1 .6c-.4.26-.58.79-.44 1.23l.55 1.77a.43.43 0 0 1-.07.3l-.38.52zm.82.58.34-.47c.27-.32.37-.83.25-1.23l-.55-1.77v-.09l.96-.57.11.02 1.3 1.32a1.41 1.41 0 0 0 1.17.37l.57-.08a1.4 1.4 0 0 0 1.04-.7l.86-1.64a.19.19 0 0 1 .12-.06 6.4 6.4 0 0 1 1.02.26c.03 0 .07.07.08.1l-.02 1.86c0 .41.24.88.57 1.09l.46.34c.3.26.84.37 1.23.25l1.77-.55c.05 0 .1.02.09 0l.56.96c.01.02 0 .09-.01.11l-1.33 1.3c-.29.29-.44.8-.36 1.17l.08.57c.04.41.33.85.7 1.04l1.64.86.06.12a6.4 6.4 0 0 1-.26 1.02c-.01.03-.08.07-.1.08l-1.87-.02c-.41 0-.87.25-1.08.56l-.34.47c-.27.32-.37.83-.25 1.23l.55 1.77v.09l-.96.57-.11-.02-1.3-1.32a1.41 1.41 0 0 0-1.17-.37l-.57.08a1.4 1.4 0 0 0-1.04.7l-.86 1.64a.19.19 0 0 1-.12.06 6.4 6.4 0 0 1-1.02-.26c-.03 0-.07-.07-.08-.1l.02-1.86c0-.41-.24-.88-.57-1.09l-.46-.34a1.39 1.39 0 0 0-1.23-.25l-1.77.55c-.05 0-.1-.02-.09 0l-.56-.96c-.02-.02 0-.09.01-.11l1.32-1.3c.3-.29.45-.8.37-1.17l-.08-.57a1.4 1.4 0 0 0-.7-1.04l-1.64-.86a.19.19 0 0 1-.06-.12 6.4 6.4 0 0 1 .26-1.02c0-.03.07-.07.1-.07l1.87.01c.4 0 .87-.25 1.08-.56z"/>
    <path d="M33 12a3 3 0 1 0 0-6 3 3 0 0 0 0 6zm0-5a2 2 0 1 1 0 4 2 2 0 0 1 0-4z"/>
  </g>
</svg>
