<svg width="32" height="32" viewBox="0 -2 16 16" xmlns="http://www.w3.org/2000/svg">
  <path data-name="Path 86" d="M15.5 0H.5a.5.5 0 0 0-.5.5v11a.5.5 0 0 0 .5.5h15a.5.5 0 0 0 .5-.5V.5a.5.5 0 0 0-.5-.5ZM15 11H1V1h14ZM8 3.5a.5.5 0 0 1 .5-.5h5a.5.5 0 0 1 .5.5.5.5 0 0 1-.5.5h-5a.5.5 0 0 1-.5-.5Zm6 3a.5.5 0 0 1-.5.5h-4a.5.5 0 0 1-.5-.5.5.5 0 0 1 .5-.5h4a.5.5 0 0 1 .5.5Zm0 3a.5.5 0 0 1-.5.5h-3a.5.5 0 0 1-.5-.5.5.5 0 0 1 .5-.5h3a.5.5 0 0 1 .5.5ZM2.5 10h5a.5.5 0 0 0 .5-.5V9a2.99 2.99 0 0 0-1.56-2.62A2 2 0 0 0 7 5a2 2 0 0 0-2-2 2 2 0 0 0-2 2 2 2 0 0 0 .56 1.38A2.99 2.99 0 0 0 2 9v.5a.5.5 0 0 0 .5.5ZM4 5a1 1 0 0 1 1-1 1 1 0 0 1 1 1 1 1 0 0 1-1 1 1 1 0 0 1-1-1Zm1 2a2 2 0 0 1 2 2H3a2 2 0 0 1 2-2Z"/>
</svg>
