<svg width="32" height="32" viewBox="0 0 32 32" xmlns="http://www.w3.org/2000/svg">
  <path d="M9.24 22.89a1 1 0 0 0 1.41 0l12.12-12.21a1 1 0 0 0-1.42-1.41L9.24 21.47a1 1 0 0 0 0 1.42zm5.63-2.13a4.18 4.18 0 0 1-1.15 4.01L9.68 28.7a4.47 4.47 0 0 1-6.36 0 4.5 4.5 0 0 1-.01-6.36l3.94-4.07a4.47 4.47 0 0 1 4.38-1.14l1.56-1.56a6.51 6.51 0 0 0-7.35 1.29L1.9 20.9a6.5 6.5 0 0 0 9.2 9.2l4.02-3.91a6.24 6.24 0 0 0 1.34-7.02zM30.1 1.9a6.48 6.48 0 0 0-9.2 0l-4.02 3.9a6.5 6.5 0 0 0-1.25 7.44l1.55-1.55a4.47 4.47 0 0 1 1.1-4.46l4.04-3.92a4.48 4.48 0 0 1 6.36 0 4.5 4.5 0 0 1 .01 6.36l-4.03 4.04a4.47 4.47 0 0 1-3.19 1.31c-.3 0-.57.04-.87-.02l-1.59 1.59c.8.33 1.61.44 2.46.44 1.67 0 3.33-.64 4.6-1.9l4.03-4.04a6.5 6.5 0 0 0 0-9.19z"/>
</svg>
