<svg height="32" width="32" xmlns="http://www.w3.org/2000/svg" viewBox="-40.96 -40.96 593.92 593.92" xml:space="preserve" transform="rotate(135)">
  <path d="M135.8 205.91A50.14 50.14 0 0 0 85.73 256a50.14 50.14 0 0 0 50.09 50.09A50.14 50.14 0 0 0 185.9 256a50.14 50.14 0 0 0-50.1-50.09zm0 66.79c-9.2 0-16.69-7.5-16.69-16.7s7.5-16.7 16.7-16.7 16.7 7.5 16.7 16.7-7.5 16.7-16.7 16.7zM227.63 328.3a49.77 49.77 0 0 0-38-5.01 49.76 49.76 0 0 0-30.41 23.34 49.76 49.76 0 0 0-5 38 49.76 49.76 0 0 0 23.33 30.42 50.12 50.12 0 0 0 68.42-18.33 50.15 50.15 0 0 0-18.34-68.43zm-10.58 51.72a16.58 16.58 0 0 1-10.14 7.78 16.6 16.6 0 0 1-12.67-1.67 16.58 16.58 0 0 1-7.78-10.14c-1.15-4.3-.56-8.8 1.67-12.67a16.58 16.58 0 0 1 14.49-8.35 16.72 16.72 0 0 1 14.43 25.05zM361.2 96.95a49.76 49.76 0 0 0-38-5 49.76 49.76 0 0 0-30.42 23.33 49.76 49.76 0 0 0-5 38.01 49.76 49.76 0 0 0 23.33 30.42 49.8 49.8 0 0 0 38 5 49.76 49.76 0 0 0 30.42-23.34 50.14 50.14 0 0 0-18.33-68.42zm-10.58 51.73a16.58 16.58 0 0 1-10.14 7.78c-4.31 1.15-8.8.56-12.67-1.67a16.58 16.58 0 0 1-7.78-10.14 16.68 16.68 0 0 1 16.15-21.03c12.71 0 20.88 13.9 14.44 25.06zM379.53 346.63a49.76 49.76 0 0 0-30.41-23.34 49.75 49.75 0 0 0-38 5 49.76 49.76 0 0 0-23.34 30.42 49.76 49.76 0 0 0 5 38 50.12 50.12 0 0 0 68.42 18.34 50.14 50.14 0 0 0 18.33-68.42zm-35.02 39.5a16.71 16.71 0 0 1-24.48-18.78c1.16-4.3 3.92-7.9 7.78-10.14a16.6 16.6 0 0 1 12.67-1.66c4.3 1.15 7.9 3.91 10.14 7.77a16.72 16.72 0 0 1-6.12 22.81zM245.97 115.29a49.75 49.75 0 0 0-30.42-23.34 49.75 49.75 0 0 0-38 5 49.76 49.76 0 0 0-23.34 30.42 49.76 49.76 0 0 0 5 38 49.76 49.76 0 0 0 30.42 23.34 49.78 49.78 0 0 0 38-5 50.14 50.14 0 0 0 18.34-68.42zm-35.03 39.5a16.59 16.59 0 0 1-12.67 1.67 16.6 16.6 0 0 1-10.14-7.78 16.59 16.59 0 0 1-1.67-12.67c1.16-4.3 3.92-7.91 7.78-10.14a16.6 16.6 0 0 1 12.67-1.67 16.71 16.71 0 0 1 4.03 30.59z"/>
  <path d="M491.12 328.44c-10.23-17.74-28.9-27.92-51.22-27.92-23.64 0-44.05-15.85-47.46-36.87-2.18-13.4 1.37-26.36 10-36.5a44.43 44.43 0 0 1 33.89-15.67c24.55 0 44.56-10.33 54.92-28.33 9.8-17.03 9.64-38.34-.4-55.62C445.14 48.87 360.27 0 269.38 0 207.7 0 150.49 20.73 103.95 59.96c-44.3 37.35-74.7 88.8-85.6 144.9-14.9 76.67 4.62 154.68 53.56 214.04A255.07 255.07 0 0 0 269.37 512c91.11 0 176.08-49.04 221.74-128a55.7 55.7 0 0 0 .01-55.56zm-28.91 38.85c-39.72 68.66-113.6 111.32-192.84 111.32a221.8 221.8 0 0 1-171.7-80.95C55.1 346.03 38.13 278.07 51.12 211.23 71.14 108.18 162.94 33.4 269.38 33.4c79.04 0 152.84 42.5 192.6 110.92 4 6.88 4.13 15.58.33 22.18-4.36 7.59-13.35 11.6-25.98 11.6-22.88 0-44.5 10-59.33 27.43A78.36 78.36 0 0 0 359.48 269c6.01 37 40.59 64.9 80.42 64.9 10.21 0 18.13 3.98 22.3 11.21a22.22 22.22 0 0 1 .01 22.17z"/>
</svg>
