<svg width="32" height="32" viewBox="0 0 32 32" xmlns="http://www.w3.org/2000/svg">
  <path d="M30.13 1.55a5.1 5.1 0 0 0-3.57-1.57c-2 0-3.47 1.3-3.87 1.7-.57.55-19.79 19.78-19.79 19.78-.12.13-.21.28-.26.46-.43 1.6-2.6 8.7-2.63 8.78-.11.36-.01.76.26 1.03a1.01 1.01 0 0 0 1.02.24c.07-.02 7.41-2.4 8.62-2.75.16-.05.3-.14.42-.25.76-.76 18.7-18.49 19.88-19.72 1.23-1.26 1.85-2.59 1.82-3.92-.02-1.32-.66-2.59-1.9-3.78zm-7.76 3.32c.5.12 1.71.53 2.94 1.76a6.14 6.14 0 0 1 1.64 3.01L10.4 26.04a8.85 8.85 0 0 0-4.65-4.54L22.36 4.87zM4.39 23.19c.55.14 1.69.57 2.85 1.74.9.9 1.32 1.9 1.51 2.5-1.39.45-4.43 1.5-6.37 2.13.58-1.89 1.54-4.83 2-6.37zM28.76 7.82l-.19.2a8.26 8.26 0 0 0-1.83-2.83 8.87 8.87 0 0 0-2.77-1.92l.14-.14a3.87 3.87 0 0 1 2.45-1.1c.74 0 1.47.34 2.17 1 .83.8 1.26 1.58 1.27 2.34.02.76-.4 1.6-1.24 2.45z"/>
</svg>
