<svg height="32" width="32" xmlns="http://www.w3.org/2000/svg" viewBox="0 0 465 465" xml:space="preserve">
  <path d="M195.9 262.63a7.5 7.5 0 0 0 3.75-1L308.15 199a7.5 7.5 0 0 0 0-13l-108.5-62.63a7.5 7.5 0 0 0-11.25 6.5v125.27a7.5 7.5 0 0 0 7.5 7.5zm7.5-119.78 86 49.65-86 49.65v-99.3z"/>
  <path d="M231.99 75.85c-28.36 0-55.7 10.3-76.97 29a116.55 116.55 0 0 0-38.6 71.63 7.5 7.5 0 1 0 14.87 2.04c6.87-49.98 50.16-87.67 100.7-87.67 56.05 0 101.65 45.6 101.65 101.65S288.04 294.15 232 294.15c-50.54 0-93.83-37.69-100.7-87.67a7.5 7.5 0 1 0-14.86 2.04c3.8 27.67 17.5 53.1 38.59 71.64 21.28 18.7 48.61 29 76.97 29 64.32 0 116.65-52.34 116.65-116.66S296.31 75.85 232 75.85zM417.5 391.5h-370a7.5 7.5 0 1 0 0 15h370a7.5 7.5 0 1 0 0-15z"/>
  <path d="M457.5 18.5H7.5A7.5 7.5 0 0 0 0 26v413a7.5 7.5 0 0 0 7.5 7.5h450a7.5 7.5 0 0 0 7.5-7.5V26a7.5 7.5 0 0 0-7.5-7.5zM15 33.5h435v318H15v-318zm0 398v-65h435v65H15z"/>
</svg>
