<svg width="32" height="32" viewBox="0 0 32 32" xmlns="http://www.w3.org/2000/svg">
  <path d="M26 21.25c-1.58 0-2.98.78-3.84 1.97v.02L10.5 17.42a4.22 4.22 0 0 0-.01-2.87v.03l11.65-5.82a4.73 4.73 0 1 0-.9-2.78V6c0 .5.1 1 .25 1.45l-.01-.03-11.64 5.82a4.75 4.75 0 1 0-.01 5.54v-.02l11.65 5.82A4.75 4.75 0 1 0 26 21.25zm0-18.5A3.25 3.25 0 1 1 22.75 6c0-1.8 1.46-3.25 3.25-3.25zM6 19.25A3.25 3.25 0 1 1 9.25 16c0 1.8-1.46 3.25-3.25 3.25zm20 10A3.25 3.25 0 1 1 29.25 26c0 1.8-1.46 3.25-3.25 3.25z"/>
</svg>
