<svg width="32" height="32" viewBox="0 0 32 32" xmlns="http://www.w3.org/2000/svg">
  <path d="M16 1.13a16 16 0 0 0-8.48 29.52 1 1 0 1 0 1.06-1.69 14.03 14.03 0 0 1-4.17-4.03l1.05-.6a1 1 0 1 0-1-1.73l-1.05.6a13.94 13.94 0 0 1-1.36-5.1h1.12a1 1 0 0 0 0-2H2.06c.13-1.84.62-3.58 1.4-5.15l1 .58a1 1 0 1 0 1-1.73l-1-.57c1-1.47 2.28-2.73 3.75-3.72l.56.97a1 1 0 0 0 1.37.37 1 1 0 0 0 .37-1.37l-.56-.97c1.54-.74 3.24-1.2 5.03-1.34v1.25a1 1 0 1 0 2 0V3.17c1.83.13 3.56.6 5.13 1.37l-.54.94a1 1 0 1 0 1.73 1l.54-.93a14.1 14.1 0 0 1 3.72 3.7l-.94.55a1 1 0 1 0 1 1.73l.94-.54a13.9 13.9 0 0 1 1.38 5.14h-1.1a1 1 0 0 0 0 2h1.1a13.95 13.95 0 0 1-1.33 5.04l-.99-.57a1 1 0 0 0-1 1.73l1 .57a14 14 0 0 1-4.3 4.12 1 1 0 0 0 1.05 1.7A16 16 0 0 0 16 1.12zm7.38 12.86a1 1 0 0 0-1-1.73l-5.43 3.14a1.98 1.98 0 0 0-2.98 1.72 2 2 0 1 0 3.99 0z"/>
</svg>
