<svg width="32" height="32" viewBox="0 0 17 17" xmlns="http://www.w3.org/2000/svg">
  <path d="M15.37 9.72c.08.2.13.47.13.81 0 .53-.24.97-.62 1.24.14.23.2.5.2.76 0 .57-.31 1.04-.78 1.3.08.18.12.41.13.7 0 .45-.13.8-.4 1.07-.27.28-.66.42-1.15.42H7.25c-.75 0-1.27-.4-1.65-.7-.22-.17-.43-.33-.57-.33h-2.1a.5.5 0 0 1 0-1h2.1c.48 0 .85.28 1.18.54.32.25.63.49 1.04.49h5.62c.22 0 .38-.05.46-.13.06-.06.1-.19.1-.36 0-.44-.1-.53-1.03-.53h-.1a.5.5 0 0 1 0-1h1.25c.31 0 .53-.2.53-.47 0-.45-.45-.51-.71-.51h-.75a.5.5 0 0 1 0-1h1.43c.33 0 .45-.25.45-.49 0-.5 0-.5-.44-.5l-.15-.01h-1.08a.5.5 0 0 1 0-1h1.63c.3 0 .54-.23.54-.51s-.24-.5-.54-.5h-4.45a.5.5 0 0 1-.5-.6l.53-2.73c.06-.27.24-1.05.03-1.4a.4.4 0 0 0-.34-.18c-.2 0-.4.16-.56.44L5.92 8.78a.5.5 0 0 1-.42.24H2.93a.5.5 0 0 1 0-1h2.3l3.08-5c.48-.8 1.1-.92 1.42-.92.49 0 .96.27 1.2.68.36.6.24 1.44.09 2.1l-.4 2.13h3.84c.85 0 1.54.67 1.54 1.5 0 .5-.25.94-.63 1.22z"/>
</svg>
