<svg width="32" height="32" viewBox="0 0 17 17" xmlns="http://www.w3.org/2000/svg">
  <path d="M14.57 9.5a.5.5 0 0 1-.5.5h-2.3L8.7 15c-.48.8-1.1.91-1.42.91-.49 0-.96-.26-1.2-.67-.37-.6-.24-1.45-.09-2.1l.4-2.13H2.54c-.85 0-1.54-.67-1.54-1.5 0-.55.3-1.03.75-1.3-.15-.2-.25-.45-.25-.73 0-.52.24-.97.62-1.23-.14-.23-.2-.5-.2-.77 0-.57.32-1.06.81-1.3a1.51 1.51 0 0 1-.16-.7c0-.92.58-1.48 1.55-1.48h5.63c.75 0 1.27.4 1.65.7.22.17.43.33.57.33h2.1a.5.5 0 0 1 0 1h-2.1c-.49 0-.86-.29-1.18-.54-.32-.25-.63-.49-1.04-.49H4.12c-.46 0-.55.17-.55.49 0 .16 0 .53 1.03.53h.1a.5.5 0 0 1 0 1H3.45c-.31 0-.53.2-.53.46 0 .45.45.52.71.52h.75a.5.5 0 0 1 0 1H2.95c-.33 0-.45.25-.45.48 0 .17.37.46.7.52h.97a.5.5 0 0 1 0 1H2.54c-.3 0-.54.23-.54.5s.24.51.54.51h4.45a.5.5 0 0 1 .49.6l-.52 2.73c-.06.27-.24 1.04-.03 1.39.05.09.18.18.34.18.2 0 .4-.15.56-.44l3.24-5.23A.5.5 0 0 1 11.5 9h2.57c.27 0 .5.23.5.5z"/>
</svg>
