<svg width="32" height="32" viewBox="0 0 1024 1024" xmlns="http://www.w3.org/2000/svg">
  <path d="M896.8 159.02H671.52V71.77c0-40.53-33-72.5-73.53-72.5H426c-40.53 0-73.52 31.97-73.52 72.5v87.26H127.2a32.01 32.01 0 0 0 0 64h44.02l74.24 739.92c3.1 34.63 32.6 61.78 67.13 61.78h398.8c34.53 0 64-27.15 67.1-61.47L852.78 223h44.01a32 32 0 0 0 0-63.99zM416.48 71.76c0-5.23 4.27-9.5 9.52-9.5H598a9.54 9.54 0 0 1 9.53 9.5v87.27H416.48zM714.77 957.2c-.16 1.78-2.26 3.54-3.38 3.54H312.6c-1.12 0-3.23-1.75-3.42-3.84l-73.63-733.86h552.91z"/>
</svg>
